<svg width="330" height="146" viewBox="0 0 330 146" fill="none" xmlns="http://www.w3.org/2000/svg">
<path d="M30.168 71.008C26.184 71.008 22.488 70.384 19.08 69.136C15.72 67.84 12.792 66.016 10.296 63.664C7.848 61.312 5.928 58.552 4.536 55.384C3.144 52.168 2.448 48.64 2.448 44.8C2.448 40.96 3.144 37.456 4.536 34.288C5.928 31.072 7.848 28.288 10.296 25.936C12.792 23.584 15.72 21.784 19.08 20.536C22.488 19.24 26.184 18.592 30.168 18.592C34.824 18.592 38.976 19.408 42.624 21.04C46.32 22.672 49.392 25.024 51.84 28.096L42.768 36.304C41.136 34.384 39.336 32.92 37.368 31.912C35.448 30.904 33.288 30.4 30.888 30.4C28.824 30.4 26.928 30.736 25.2 31.408C23.472 32.08 21.984 33.064 20.736 34.36C19.536 35.608 18.576 37.12 17.856 38.896C17.184 40.672 16.848 42.64 16.848 44.8C16.848 46.96 17.184 48.928 17.856 50.704C18.576 52.48 19.536 54.016 20.736 55.312C21.984 56.56 23.472 57.52 25.2 58.192C26.928 58.864 28.824 59.2 30.888 59.2C33.288 59.2 35.448 58.696 37.368 57.688C39.336 56.68 41.136 55.216 42.768 53.296L51.84 61.504C49.392 64.528 46.32 66.88 42.624 68.56C38.976 70.192 34.824 71.008 30.168 71.008ZM75.8666 70.648C71.5946 70.648 67.8026 69.784 64.4906 68.056C61.1786 66.328 58.5626 63.952 56.6426 60.928C54.7706 57.856 53.8346 54.352 53.8346 50.416C53.8346 46.48 54.7706 43 56.6426 39.976C58.5626 36.952 61.1786 34.6 64.4906 32.92C67.8026 31.192 71.5946 30.328 75.8666 30.328C80.1386 30.328 83.9306 31.192 87.2426 32.92C90.6026 34.6 93.2186 36.952 95.0906 39.976C96.9626 43 97.8986 46.48 97.8986 50.416C97.8986 54.352 96.9626 57.856 95.0906 60.928C93.2186 63.952 90.6026 66.328 87.2426 68.056C83.9306 69.784 80.1386 70.648 75.8666 70.648ZM75.8666 59.776C77.4506 59.776 78.8426 59.416 80.0426 58.696C81.2906 57.976 82.2746 56.92 82.9946 55.528C83.7146 54.088 84.0746 52.384 84.0746 50.416C84.0746 48.448 83.7146 46.792 82.9946 45.448C82.2746 44.056 81.2906 43 80.0426 42.28C78.8426 41.56 77.4506 41.2 75.8666 41.2C74.3306 41.2 72.9386 41.56 71.6906 42.28C70.4906 43 69.5066 44.056 68.7386 45.448C68.0186 46.792 67.6586 48.448 67.6586 50.416C67.6586 52.384 68.0186 54.088 68.7386 55.528C69.5066 56.92 70.4906 57.976 71.6906 58.696C72.9386 59.416 74.3306 59.776 75.8666 59.776ZM129.652 30.328C132.676 30.328 135.412 30.952 137.86 32.2C140.308 33.4 142.228 35.272 143.62 37.816C145.06 40.36 145.78 43.648 145.78 47.68V70H132.1V49.912C132.1 47.128 131.524 45.112 130.372 43.864C129.268 42.568 127.708 41.92 125.692 41.92C124.252 41.92 122.932 42.256 121.732 42.928C120.532 43.552 119.596 44.536 118.924 45.88C118.252 47.224 117.916 48.976 117.916 51.136V70H104.236V30.976H117.268V42.064L114.748 38.824C116.236 35.992 118.276 33.88 120.868 32.488C123.46 31.048 126.388 30.328 129.652 30.328ZM171.793 70.648C166.801 70.648 162.913 69.424 160.129 66.976C157.345 64.48 155.953 60.736 155.953 55.744V22.264H169.633V55.6C169.633 56.992 170.017 58.096 170.785 58.912C171.553 59.68 172.537 60.064 173.737 60.064C175.369 60.064 176.761 59.656 177.913 58.84L181.297 68.416C180.145 69.184 178.729 69.736 177.049 70.072C175.369 70.456 173.617 70.648 171.793 70.648ZM150.265 42.64V32.416H178.561V42.64H150.265ZM210.404 70V62.728L209.468 60.928V47.536C209.468 45.376 208.796 43.72 207.452 42.568C206.156 41.368 204.068 40.768 201.188 40.768C199.316 40.768 197.42 41.08 195.5 41.704C193.58 42.28 191.948 43.096 190.604 44.152L185.996 34.864C188.204 33.424 190.844 32.32 193.916 31.552C197.036 30.736 200.132 30.328 203.204 30.328C209.54 30.328 214.436 31.792 217.892 34.72C221.396 37.6 223.148 42.136 223.148 48.328V70H210.404ZM198.884 70.648C195.764 70.648 193.124 70.12 190.964 69.064C188.804 68.008 187.148 66.568 185.996 64.744C184.892 62.92 184.34 60.88 184.34 58.624C184.34 56.224 184.94 54.16 186.14 52.432C187.388 50.656 189.284 49.312 191.828 48.4C194.372 47.44 197.66 46.96 201.692 46.96H210.908V54.088H203.564C201.356 54.088 199.796 54.448 198.884 55.168C198.02 55.888 197.588 56.848 197.588 58.048C197.588 59.248 198.044 60.208 198.956 60.928C199.868 61.648 201.116 62.008 202.7 62.008C204.188 62.008 205.532 61.648 206.732 60.928C207.98 60.16 208.892 59.008 209.468 57.472L211.34 62.512C210.62 65.2 209.204 67.24 207.092 68.632C205.028 69.976 202.292 70.648 198.884 70.648ZM252.219 70.648C247.899 70.648 244.035 69.784 240.627 68.056C237.267 66.328 234.627 63.952 232.707 60.928C230.787 57.856 229.827 54.352 229.827 50.416C229.827 46.48 230.787 43 232.707 39.976C234.627 36.952 237.267 34.6 240.627 32.92C244.035 31.192 247.899 30.328 252.219 30.328C256.635 30.328 260.451 31.264 263.667 33.136C266.883 35.008 269.163 37.648 270.507 41.056L259.923 46.456C259.011 44.632 257.883 43.312 256.539 42.496C255.195 41.632 253.731 41.2 252.147 41.2C250.563 41.2 249.123 41.56 247.827 42.28C246.531 43 245.499 44.056 244.731 45.448C244.011 46.792 243.651 48.448 243.651 50.416C243.651 52.432 244.011 54.136 244.731 55.528C245.499 56.92 246.531 57.976 247.827 58.696C249.123 59.416 250.563 59.776 252.147 59.776C253.731 59.776 255.195 59.368 256.539 58.552C257.883 57.688 259.011 56.344 259.923 54.52L270.507 59.92C269.163 63.328 266.883 65.968 263.667 67.84C260.451 69.712 256.635 70.648 252.219 70.648ZM293.714 70.648C288.722 70.648 284.834 69.424 282.05 66.976C279.266 64.48 277.874 60.736 277.874 55.744V22.264H291.554V55.6C291.554 56.992 291.938 58.096 292.706 58.912C293.474 59.68 294.458 60.064 295.658 60.064C297.29 60.064 298.682 59.656 299.834 58.84L303.218 68.416C302.066 69.184 300.65 69.736 298.97 70.072C297.29 70.456 295.538 70.648 293.714 70.648ZM272.186 42.64V32.416H300.482V42.64H272.186Z" fill="white"/>
<path d="M5.04 128V77.6H16.776L37.656 111.872H31.464L51.768 77.6H63.504L63.648 128H50.544L50.4 97.544H52.632L37.44 123.032H31.104L15.48 97.544H18.216V128H5.04ZM93.5353 128.648C88.9273 128.648 84.8953 127.784 81.4393 126.056C78.0313 124.28 75.3673 121.88 73.4473 118.856C71.5753 115.784 70.6393 112.304 70.6393 108.416C70.6393 104.528 71.5513 101.072 73.3753 98.048C75.2473 94.976 77.8153 92.6 81.0793 90.92C84.3433 89.192 88.0153 88.328 92.0953 88.328C95.9353 88.328 99.4393 89.12 102.607 90.704C105.775 92.24 108.295 94.52 110.167 97.544C112.039 100.568 112.975 104.24 112.975 108.56C112.975 109.04 112.951 109.592 112.903 110.216C112.855 110.84 112.807 111.416 112.759 111.944H81.8713V104.744H105.487L100.303 106.76C100.351 104.984 100.015 103.448 99.2953 102.152C98.6233 100.856 97.6633 99.848 96.4153 99.128C95.2153 98.408 93.7993 98.048 92.1673 98.048C90.5353 98.048 89.0953 98.408 87.8473 99.128C86.6473 99.848 85.7113 100.88 85.0393 102.224C84.3673 103.52 84.0313 105.056 84.0313 106.832V108.92C84.0313 110.84 84.4153 112.496 85.1833 113.888C85.9993 115.28 87.1513 116.36 88.6393 117.128C90.1273 117.848 91.9033 118.208 93.9673 118.208C95.8873 118.208 97.5193 117.944 98.8633 117.416C100.255 116.84 101.623 115.976 102.967 114.824L110.167 122.312C108.295 124.376 105.991 125.96 103.255 127.064C100.519 128.12 97.2793 128.648 93.5353 128.648Z" fill="white"/>
</svg>
