<?xml version="1.0" encoding="UTF-8" standalone="no"?>
<!-- Created with Inkscape (http://www.inkscape.org/) -->

<svg
   width="76.202934mm"
   height="71.029724mm"
   viewBox="0 0 76.202934 71.029724"
   version="1.1"
   id="svg1"
   xml:space="preserve"
   xmlns:inkscape="http://www.inkscape.org/namespaces/inkscape"
   xmlns:sodipodi="http://sodipodi.sourceforge.net/DTD/sodipodi-0.dtd"
   xmlns="http://www.w3.org/2000/svg"
   xmlns:svg="http://www.w3.org/2000/svg"><sodipodi:namedview
     id="namedview1"
     pagecolor="#ffffff"
     bordercolor="#000000"
     borderopacity="0.25"
     inkscape:showpageshadow="2"
     inkscape:pageopacity="0.0"
     inkscape:pagecheckerboard="0"
     inkscape:deskcolor="#d1d1d1"
     inkscape:document-units="mm" /><defs
     id="defs1" /><g
     inkscape:label="Layer 1"
     inkscape:groupmode="layer"
     id="layer1"
     transform="translate(-226.12934,-202.36906)"><g
       id="g9"><path
         style="fill:#6c6c6c"
         d="m 276.66476,273.16722 c 0,-0.15324 0.29766,-0.71666 0.66146,-1.25205 1.36535,-2.00929 0.0245,-5.61896 -1.99317,-5.36562 -4.15822,0.52214 -3.8206,2.29533 -3.89544,-20.45901 -0.079,-24.00718 -0.47149,-21.80793 3.7058,-20.76226 1.09858,0.275 1.11796,0.31739 0.69701,1.52491 -0.7269,2.08519 0.16562,0.73705 2.54041,-3.83725 7.47167,-14.3919 9.80051,-16.96828 17.65237,-19.52872 4.07652,-1.32932 4.80619,-1.4054 5.62508,-0.5865 1.34712,1.34711 0.5567,3.34095 -1.32446,3.34095 -7.46976,0 -13.18536,4.6384 -19.32788,15.68524 -2.65855,4.78118 -2.6185,4.35919 -0.54117,5.70263 11.68243,7.55518 12.20842,27.24088 0.95916,35.89699 -1.34911,1.03811 -1.5981,1.34996 -1.44997,1.81601 0.44785,1.40905 0.45275,3.64234 0.0105,4.80027 -0.5876,1.53862 -3.31973,4.02769 -3.31973,3.02441 z m 6.17927,-20.64503 c 5.80332,-1.61141 7.12945,-12.92821 2.05245,-17.51498 -4.07579,-3.68223 -9.31735,0.20518 -9.74786,7.22952 -0.39745,6.48505 3.34892,11.49235 7.69541,10.28546 z m -23.21277,15.57591 c -1.42428,-1.48647 -2.82379,-4.24927 -3.01558,-5.95314 -0.102,-0.90623 -0.42351,-1.6434 -1.12947,-2.58975 -2.85841,-3.83171 -4.15417,-8.39731 -2.08747,-7.35513 2.56503,1.29348 6.23874,0.49262 8.32297,-1.81438 6.36705,-7.04755 1.30445,-20.21124 -7.00625,-18.21753 -2.39795,0.57526 -1.44538,-1.25164 1.79699,-3.44639 2.50839,-1.69792 1.66569,-2.11112 6.83128,3.34961 1.91317,2.02248 2.63899,2.31482 3.53145,1.42236 0.88943,-0.88943 0.68867,-1.77751 -1.48212,-6.55628 -0.94943,-2.09009 -0.8967,-2.14549 2.14358,-2.25177 2.6866,-0.0939 2.46693,33.8823 -0.22227,34.37863 -2.14956,0.39672 -3.99317,1.49405 -4.9233,2.93035 -0.35621,0.55007 -0.86445,1.1809 -1.12943,1.40186 -0.43611,0.36367 -0.45977,0.63955 -0.24955,2.91042 0.28774,3.10842 0.10655,3.34345 -1.38083,1.79114 z m 3.46188,-37.44862 c -4.62598,-4.78372 -6.00384,-6.45673 -6.36772,-7.7317 -0.96925,-3.39613 -16.72079,-7.731 -21.46795,-5.90805 -1.91752,0.73635 -3.90128,2.08853 -6.68073,4.55375 -2.44739,2.17071 -2.44739,2.17071 -2.44739,-0.95353 0,-9.36039 15.821,-10.36657 29.57155,-1.88069 0.97987,0.60471 2.43764,1.42091 3.23949,1.81379 4.01714,1.96825 9.75021,12.61655 6.82806,12.68207 -0.0994,0.002 -1.30327,-1.15681 -2.67531,-2.57564 z"
         id="path9" /><path
         style="fill:#303030"
         d="m 276.45683,272.77868 c 0.72695,-0.79503 1.39999,-2.16024 1.39999,-2.83979 0,-0.73717 -1.33939,-3.31772 -1.90948,-3.67895 -0.29004,-0.18377 -0.67889,-0.20244 -1.07555,-0.0516 -0.34171,0.12992 -1.29814,0.32078 -2.12542,0.42414 l -1.50414,0.18793 v -20.93257 -20.93257 h 0.74963 c 0.41229,0 1.43029,0.1367 2.26222,0.30378 1.21921,0.24485 1.4797,0.38598 1.34295,0.7276 -1.37202,3.42754 -2.55488,6.90612 -2.34836,6.90612 0.071,0 0.36137,-0.542 0.64533,-1.20445 1.95414,-4.55885 7.6563,-15.29468 10.25127,-19.30076 2.66171,-4.10912 4.21657,-5.63587 7.34218,-7.20943 1.92698,-0.97013 6.43008,-2.43567 8.08726,-2.63202 1.09197,-0.12938 1.26975,-0.0711 1.78594,0.58508 0.75716,0.96258 0.72322,1.60203 -0.12684,2.38984 -0.56875,0.52709 -0.97828,0.64941 -2.18282,0.65196 -0.81549,0.002 -2.13756,0.1943 -2.93792,0.42792 -0.80037,0.23363 -1.71173,0.44058 -2.02526,0.45988 -0.31352,0.0193 -0.53111,0.0981 -0.48351,0.17512 0.0476,0.077 -0.65521,0.52459 -1.56179,0.99463 -0.90658,0.47004 -2.4108,1.49998 -3.3427,2.28875 -0.9319,0.78877 -1.81804,1.41275 -1.9692,1.38662 -0.15116,-0.0261 -0.24549,0.10006 -0.20962,0.28042 0.0359,0.18037 -0.60065,1.18975 -1.41449,2.24307 -1.56829,2.02978 -4.43109,6.74428 -6.02615,9.92395 -0.52742,1.0514 -0.95895,1.96015 -0.95895,2.01945 0,0.0593 0.76905,0.60887 1.70899,1.22127 9.16165,5.96905 12.01377,19.96358 6.1187,30.02275 -0.39256,0.66986 -0.81266,1.15679 -0.93356,1.08208 -0.12089,-0.0747 -0.20348,0.029 -0.18353,0.23059 0.056,0.56583 -2.35061,3.22352 -4.02082,4.4403 -0.82454,0.60069 -1.5383,1.12239 -1.58615,1.15932 -0.0479,0.0369 0.11715,0.71479 0.36666,1.50633 0.31638,1.00367 0.39873,1.80548 0.27213,2.6497 -0.19259,1.28431 -1.19865,3.01152 -1.69275,2.90612 -0.16236,-0.0346 -0.2399,0.0844 -0.1723,0.26458 0.11577,0.30855 -1.36469,1.51818 -1.85809,1.51818 -0.1255,0 0.0168,-0.26789 0.31615,-0.59531 z m 6.51274,-20.28905 c 0.35711,-0.13577 1.06211,-0.60931 1.56665,-1.05231 0.50455,-0.443 1.00395,-0.71886 1.10978,-0.61304 0.10583,0.10583 0.15273,0.0138 0.10422,-0.20445 -0.0488,-0.21972 0.0682,-0.36443 0.2622,-0.32418 0.19272,0.04 0.27365,-0.0515 0.17984,-0.20326 -0.0938,-0.15178 0.0723,-0.66887 0.36906,-1.14908 1.73069,-2.80031 1.73584,-8.2219 0.011,-11.54032 -1.40109,-2.69551 -3.1475,-3.98108 -5.40819,-3.98108 -5.91188,0 -8.85793,10.33833 -4.70735,16.51908 0.3973,0.59164 0.6933,1.17386 0.65778,1.29381 -0.0355,0.11996 0.0492,0.14778 0.18827,0.0618 0.13907,-0.0859 0.32833,-0.0342 0.42058,0.1151 0.63342,1.02491 3.71842,1.65876 5.24618,1.0779 z m 3.44153,-1.16483 c 0.0973,0.0973 0.17697,0.10462 0.17697,0.0162 0,-0.4533 -0.51694,-0.37498 -0.95683,0.14496 -0.49708,0.58753 -0.49694,0.58786 0.0523,0.12548 0.30285,-0.25498 0.63027,-0.38397 0.7276,-0.28664 z"
         id="path1" /></g></g></svg>
